<?xml version="1.0" encoding="UTF-8" standalone="no"?>
<!DOCTYPE svg PUBLIC "-//W3C//DTD SVG 1.1//EN" "http://www.w3.org/Graphics/SVG/1.1/DTD/svg11.dtd">
<svg width="100%" height="100%" viewBox="0 0 1700 300" version="1.1" xmlns="http://www.w3.org/2000/svg" xmlns:xlink="http://www.w3.org/1999/xlink" xml:space="preserve" xmlns:serif="http://www.serif.com/" style="fill-rule:evenodd;clip-rule:evenodd;stroke-linejoin:round;stroke-miterlimit:2;">
    <g>
        <path d="M125,225c-13.807,-0 -25,-11.193 -25,-25l0,-25c0,-13.807 11.193,-25 25,-25l25,0l0,-50l-25,-0c-41.421,-0 -75,33.579 -75,75l0,25c0,41.421 33.579,75 75,75l100,-0l0,-50l-100,-0Z" style="fill:#29abe2;fill-rule:nonzero;"/>
        <path d="M225,225c-13.807,-0 -25,-11.193 -25,-25l-0,-175l-50,0l-0,175c-0,41.421 33.579,75 75,75l-0,-0l-0,-50l-0,-0Z" style="fill:#0071bc;fill-rule:nonzero;"/>
    </g>
    <path d="M373.46,106.62c0,0.6 -0.21,1.11 -0.63,1.53c-0.42,0.42 -0.93,0.63 -1.53,0.63l-59.04,-0c-0.6,-0 -0.9,0.3 -0.9,0.9l0,27.9c0,0.6 0.3,0.9 0.9,0.9l38.7,-0c0.6,-0 1.11,0.21 1.53,0.63c0.42,0.42 0.63,0.93 0.63,1.53l0,17.46c0,0.6 -0.21,1.11 -0.63,1.53c-0.42,0.42 -0.93,0.63 -1.53,0.63l-38.7,-0c-0.6,-0 -0.9,0.3 -0.9,0.9l0,29.16c0,0.6 0.3,0.9 0.9,0.9l59.04,-0c0.6,-0 1.11,0.21 1.53,0.63c0.42,0.42 0.63,0.93 0.63,1.53l0,17.46c0,0.6 -0.21,1.11 -0.63,1.53c-0.42,0.42 -0.93,0.63 -1.53,0.63l-83.16,-0c-0.6,-0 -1.11,-0.21 -1.53,-0.63c-0.42,-0.42 -0.63,-0.93 -0.63,-1.53l0,-121.68c0,-0.6 0.21,-1.11 0.63,-1.53c0.42,-0.42 0.93,-0.63 1.53,-0.63l83.16,-0c0.6,-0 1.11,0.21 1.53,0.63c0.42,0.42 0.63,0.93 0.63,1.53l0,17.46Z" style="fill:#fff;fill-rule:nonzero;"/>
    <path d="M426.38,119.04c7.8,-0 14.76,1.35 20.88,4.05c6.12,2.7 10.89,6.39 14.31,11.07c3.42,4.68 5.13,9.9 5.13,15.66l0,61.02c0,0.6 -0.21,1.11 -0.63,1.53c-0.42,0.42 -0.93,0.63 -1.53,0.63l-21.06,-0c-0.6,-0 -1.11,-0.21 -1.53,-0.63c-0.42,-0.42 -0.63,-0.93 -0.63,-1.53l0,-5.94c0,-0.36 -0.12,-0.6 -0.36,-0.72c-0.24,-0.12 -0.48,-0 -0.72,0.36c-5.04,6.6 -13.14,9.9 -24.3,9.9c-9.36,-0 -16.92,-2.28 -22.68,-6.84c-5.76,-4.56 -8.64,-11.28 -8.64,-20.16c0,-9.24 3.24,-16.41 9.72,-21.51c6.48,-5.1 15.72,-7.65 27.72,-7.65l18.36,-0c0.6,-0 0.9,-0.3 0.9,-0.9l0,-3.96c0,-3.96 -1.2,-7.05 -3.6,-9.27c-2.4,-2.22 -6,-3.33 -10.8,-3.33c-3.72,-0 -6.81,0.66 -9.27,1.98c-2.46,1.32 -4.05,3.18 -4.77,5.58c-0.36,1.32 -1.14,1.92 -2.34,1.8l-21.78,-2.88c-1.44,-0.24 -2.1,-0.78 -1.98,-1.62c0.48,-5.04 2.49,-9.6 6.03,-13.68c3.54,-4.08 8.22,-7.26 14.04,-9.54c5.82,-2.28 12.33,-3.42 19.53,-3.42Zm-3.6,76.5c5.16,-0 9.54,-1.38 13.14,-4.14c3.6,-2.76 5.4,-6.3 5.4,-10.62l0,-6.48c0,-0.6 -0.3,-0.9 -0.9,-0.9l-12.96,-0c-5.4,-0 -9.63,1.02 -12.69,3.06c-3.06,2.04 -4.59,4.92 -4.59,8.64c0,3.24 1.14,5.79 3.42,7.65c2.28,1.86 5.34,2.79 9.18,2.79Z" style="fill:#fff;fill-rule:nonzero;"/>
    <path d="M521.42,214.26c-8.04,-0 -15.06,-1.14 -21.06,-3.42c-6,-2.28 -10.65,-5.46 -13.95,-9.54c-3.3,-4.08 -4.95,-8.7 -4.95,-13.86l0,-1.8c0,-0.6 0.21,-1.11 0.63,-1.53c0.42,-0.42 0.93,-0.63 1.53,-0.63l19.98,-0c0.6,-0 1.11,0.21 1.53,0.63c0.42,0.42 0.63,0.93 0.63,1.53l0,0.18c0,2.64 1.47,4.89 4.41,6.75c2.94,1.86 6.63,2.79 11.07,2.79c4.08,-0 7.38,-0.81 9.9,-2.43c2.52,-1.62 3.78,-3.63 3.78,-6.03c0,-2.16 -1.08,-3.78 -3.24,-4.86c-2.16,-1.08 -5.7,-2.22 -10.62,-3.42c-5.64,-1.44 -10.08,-2.82 -13.32,-4.14c-7.68,-2.64 -13.8,-5.88 -18.36,-9.72c-4.56,-3.84 -6.84,-9.36 -6.84,-16.56c0,-8.88 3.45,-15.93 10.35,-21.15c6.9,-5.22 16.05,-7.83 27.45,-7.83c7.68,-0 14.4,1.23 20.16,3.69c5.76,2.46 10.23,5.91 13.41,10.35c3.18,4.44 4.77,9.48 4.77,15.12c0,0.6 -0.21,1.11 -0.63,1.53c-0.42,0.42 -0.93,0.63 -1.53,0.63l-19.26,-0c-0.6,-0 -1.11,-0.21 -1.53,-0.63c-0.42,-0.42 -0.63,-0.93 -0.63,-1.53c0,-2.64 -1.35,-4.86 -4.05,-6.66c-2.7,-1.8 -6.27,-2.7 -10.71,-2.7c-3.96,-0 -7.2,0.72 -9.72,2.16c-2.52,1.44 -3.78,3.42 -3.78,5.94c0,2.4 1.23,4.2 3.69,5.4c2.46,1.2 6.57,2.46 12.33,3.78c1.32,0.36 2.82,0.75 4.5,1.17c1.68,0.42 3.48,0.93 5.4,1.53c8.52,2.52 15.24,5.76 20.16,9.72c4.92,3.96 7.38,9.72 7.38,17.28c0,8.88 -3.51,15.81 -10.53,20.79c-7.02,4.98 -16.47,7.47 -28.35,7.47Z" style="fill:#fff;fill-rule:nonzero;"/>
    <path d="M567.86,248.82c-0.36,-0 -0.66,-0.21 -0.9,-0.63c-0.24,-0.42 -0.36,-0.93 -0.36,-1.53l0,-16.56c0,-0.6 0.21,-1.11 0.63,-1.53c0.42,-0.42 0.93,-0.63 1.53,-0.63c5.04,-0.12 9.03,-0.54 11.97,-1.26c2.94,-0.72 5.28,-2.1 7.02,-4.14c1.74,-2.04 3.09,-5.04 4.05,-9c0.12,-0.24 0.12,-0.6 0,-1.08l-29.52,-89.64c-0.12,-0.24 -0.18,-0.54 -0.18,-0.9c0,-1.08 0.66,-1.62 1.98,-1.62l22.5,-0c1.32,-0 2.16,0.6 2.52,1.8l15.12,58.32c0.12,0.36 0.3,0.54 0.54,0.54c0.24,0 0.42,-0.18 0.54,-0.54l15.12,-58.32c0.36,-1.2 1.2,-1.8 2.52,-1.8l21.96,-0c0.72,-0 1.23,0.21 1.53,0.63c0.3,0.42 0.33,1.05 0.09,1.89l-31.14,93.6c-3,8.76 -6.06,15.33 -9.18,19.71c-3.12,4.38 -7.5,7.59 -13.14,9.63c-5.64,2.04 -13.62,3.06 -23.94,3.06l-1.26,-0Z" style="fill:#fff;fill-rule:nonzero;"/>
    <path d="M741.02,214.44c-9.36,-0 -17.58,-1.83 -24.66,-5.49c-7.08,-3.66 -12.54,-8.79 -16.38,-15.39c-3.84,-6.6 -5.76,-14.22 -5.76,-22.86l0,-41.58c0,-8.64 1.92,-16.26 5.76,-22.86c3.84,-6.6 9.3,-11.7 16.38,-15.3c7.08,-3.6 15.3,-5.4 24.66,-5.4c9.24,-0 17.37,1.71 24.39,5.13c7.02,3.42 12.48,8.28 16.38,14.58c3.9,6.3 5.85,13.59 5.85,21.87c0,1.08 -0.72,1.74 -2.16,1.98l-21.06,1.26l-0.36,-0c-1.2,-0 -1.8,-0.66 -1.8,-1.98c0,-6.36 -1.95,-11.46 -5.85,-15.3c-3.9,-3.84 -9.03,-5.76 -15.39,-5.76c-6.48,-0 -11.67,1.92 -15.57,5.76c-3.9,3.84 -5.85,8.94 -5.85,15.3l0,43.38c0,6.24 1.95,11.28 5.85,15.12c3.9,3.84 9.09,5.76 15.57,5.76c6.36,-0 11.49,-1.92 15.39,-5.76c3.9,-3.84 5.85,-8.88 5.85,-15.12c0,-1.32 0.72,-1.98 2.16,-1.98l21.06,0.9c0.6,-0 1.11,0.18 1.53,0.54c0.42,0.36 0.63,0.78 0.63,1.26c0,8.28 -1.95,15.6 -5.85,21.96c-3.9,6.36 -9.36,11.28 -16.38,14.76c-7.02,3.48 -15.15,5.22 -24.39,5.22Z" style="fill:#fff;fill-rule:nonzero;"/>
    <path d="M845.24,214.44c-10.08,-0 -18.72,-2.64 -25.92,-7.92c-7.2,-5.28 -12.12,-12.48 -14.76,-21.6c-1.68,-5.64 -2.52,-11.76 -2.52,-18.36c0,-7.08 0.84,-13.44 2.52,-19.08c2.76,-8.88 7.74,-15.84 14.94,-20.88c7.2,-5.04 15.84,-7.56 25.92,-7.56c9.84,-0 18.24,2.49 25.2,7.47c6.96,4.98 11.88,11.91 14.76,20.79c1.92,6 2.88,12.3 2.88,18.9c0,6.48 -0.84,12.54 -2.52,18.18c-2.64,9.36 -7.53,16.71 -14.67,22.05c-7.14,5.34 -15.75,8.01 -25.83,8.01Zm0,-21.78c3.96,-0 7.32,-1.2 10.08,-3.6c2.76,-2.4 4.74,-5.7 5.94,-9.9c0.96,-3.84 1.44,-8.04 1.44,-12.6c-0,-5.04 -0.48,-9.3 -1.44,-12.78c-1.32,-4.08 -3.36,-7.26 -6.12,-9.54c-2.76,-2.28 -6.12,-3.42 -10.08,-3.42c-4.08,-0 -7.47,1.14 -10.17,3.42c-2.7,2.28 -4.65,5.46 -5.85,9.54c-0.96,2.88 -1.44,7.14 -1.44,12.78c0,5.4 0.42,9.6 1.26,12.6c1.2,4.2 3.21,7.5 6.03,9.9c2.82,2.4 6.27,3.6 10.35,3.6Z" style="fill:#fff;fill-rule:nonzero;"/>
    <path d="M1007.24,119.04c9.36,-0 16.68,2.82 21.96,8.46c5.28,5.64 7.92,13.56 7.92,23.76l0,59.58c0,0.6 -0.21,1.11 -0.63,1.53c-0.42,0.42 -0.93,0.63 -1.53,0.63l-21.06,0c-0.6,0 -1.11,-0.21 -1.53,-0.63c-0.42,-0.42 -0.63,-0.93 -0.63,-1.53l0,-54c0,-4.92 -1.26,-8.82 -3.78,-11.7c-2.52,-2.88 -5.88,-4.32 -10.08,-4.32c-4.2,-0 -7.62,1.44 -10.26,4.32c-2.64,2.88 -3.96,6.72 -3.96,11.52l0,54.18c0,0.6 -0.21,1.11 -0.63,1.53c-0.42,0.42 -0.93,0.63 -1.53,0.63l-20.88,-0c-0.6,-0 -1.11,-0.21 -1.53,-0.63c-0.42,-0.42 -0.63,-0.93 -0.63,-1.53l-0,-54c-0,-4.8 -1.32,-8.67 -3.96,-11.61c-2.64,-2.94 -6.06,-4.41 -10.26,-4.41c-3.84,-0 -7.05,1.14 -9.63,3.42c-2.58,2.28 -4.11,5.46 -4.59,9.54l0,57.06c0,0.6 -0.21,1.11 -0.63,1.53c-0.42,0.42 -0.93,0.63 -1.53,0.63l-21.06,-0c-0.6,-0 -1.11,-0.21 -1.53,-0.63c-0.42,-0.42 -0.63,-0.93 -0.63,-1.53l-0,-88.2c-0,-0.6 0.21,-1.11 0.63,-1.53c0.42,-0.42 0.93,-0.63 1.53,-0.63l21.06,-0c0.6,-0 1.11,0.21 1.53,0.63c0.42,0.42 0.63,0.93 0.63,1.53l0,7.02c0,0.36 0.12,0.6 0.36,0.72c0.24,0.12 0.48,-0 0.72,-0.36c4.92,-7.32 12.54,-10.98 22.86,-10.98c6,-0 11.25,1.26 15.75,3.78c4.5,2.52 7.95,6.12 10.35,10.8c0.36,0.72 0.78,0.72 1.26,0c2.64,-4.92 6.21,-8.58 10.71,-10.98c4.5,-2.4 9.57,-3.6 15.21,-3.6Z" style="fill:#fff;fill-rule:nonzero;"/>
    <path d="M1137.56,145.32c2.16,6.12 3.24,13.32 3.24,21.6c0,8.28 -1.14,15.78 -3.42,22.5c-2.76,7.68 -7.11,13.77 -13.05,18.27c-5.94,4.5 -13.29,6.75 -22.05,6.75c-8.64,-0 -15.36,-3 -20.16,-9c-0.24,-0.36 -0.48,-0.48 -0.72,-0.36c-0.24,0.12 -0.36,0.36 -0.36,0.72l0,38.52c0,0.6 -0.21,1.11 -0.63,1.53c-0.42,0.42 -0.93,0.63 -1.53,0.63l-21.06,-0c-0.6,-0 -1.11,-0.21 -1.53,-0.63c-0.42,-0.42 -0.63,-0.93 -0.63,-1.53l0,-121.68c0,-0.6 0.21,-1.11 0.63,-1.53c0.42,-0.42 0.93,-0.63 1.53,-0.63l21.06,-0c0.6,-0 1.11,0.21 1.53,0.63c0.42,0.42 0.63,0.93 0.63,1.53l0,5.94c0,0.36 0.12,0.57 0.36,0.63c0.24,0.06 0.48,-0.03 0.72,-0.27c5.04,-6.6 12,-9.9 20.88,-9.9c8.28,0 15.45,2.31 21.51,6.93c6.06,4.62 10.41,11.07 13.05,19.35Zm-27.54,40.32c3,-4.68 4.5,-11.04 4.5,-19.08c0,-7.56 -1.26,-13.56 -3.78,-18c-2.76,-5.16 -7.2,-7.74 -13.32,-7.74c-5.52,0 -9.66,2.58 -12.42,7.74c-2.52,4.32 -3.78,10.38 -3.78,18.18c0,8.04 1.32,14.28 3.96,18.72c2.76,4.8 6.84,7.2 12.24,7.2c5.4,0 9.6,-2.34 12.6,-7.02Z" style="fill:#fff;fill-rule:nonzero;"/>
    <path d="M1203.26,119.22c4.32,-0 7.74,0.84 10.26,2.52c0.96,0.48 1.32,1.38 1.08,2.7l-3.78,20.52c-0.12,1.44 -0.96,1.86 -2.52,1.26c-1.8,-0.6 -3.9,-0.9 -6.3,-0.9c-0.96,-0 -2.28,0.12 -3.96,0.36c-4.32,0.36 -7.98,1.95 -10.98,4.77c-3,2.82 -4.5,6.57 -4.5,11.25l0,49.14c0,0.6 -0.21,1.11 -0.63,1.53c-0.42,0.42 -0.93,0.63 -1.53,0.63l-21.06,-0c-0.6,-0 -1.11,-0.21 -1.53,-0.63c-0.42,-0.42 -0.63,-0.93 -0.63,-1.53l0,-88.2c0,-0.6 0.21,-1.11 0.63,-1.53c0.42,-0.42 0.93,-0.63 1.53,-0.63l21.06,-0c0.6,-0 1.11,0.21 1.53,0.63c0.42,0.42 0.63,0.93 0.63,1.53l0,6.84c0,0.36 0.12,0.6 0.36,0.72c0.24,0.12 0.42,0.06 0.54,-0.18c4.92,-7.2 11.52,-10.8 19.8,-10.8Z" style="fill:#fff;fill-rule:nonzero;"/>
    <path d="M1305.68,157.2c0.72,4.56 0.96,9.66 0.72,15.3c-0.12,1.44 -0.9,2.16 -2.34,2.16l-55.62,-0c-0.72,-0 -0.96,0.3 -0.72,0.9c0.36,2.4 1.02,4.8 1.98,7.2c3.12,6.72 9.48,10.08 19.08,10.08c7.68,-0.12 13.74,-3.24 18.18,-9.36c0.48,-0.72 1.02,-1.08 1.62,-1.08c0.36,-0 0.78,0.24 1.26,0.72l12.96,12.78c0.6,0.6 0.9,1.14 0.9,1.62c-0,0.24 -0.24,0.72 -0.72,1.44c-3.96,4.92 -9.06,8.73 -15.3,11.43c-6.24,2.7 -13.08,4.05 -20.52,4.05c-10.32,-0 -19.05,-2.34 -26.19,-7.02c-7.14,-4.68 -12.27,-11.22 -15.39,-19.62c-2.52,-6 -3.78,-13.86 -3.78,-23.58c0,-6.6 0.9,-12.42 2.7,-17.46c2.76,-8.52 7.59,-15.3 14.49,-20.34c6.9,-5.04 15.09,-7.56 24.57,-7.56c12,-0 21.63,3.48 28.89,10.44c7.26,6.96 11.67,16.26 13.23,27.9Zm-41.94,-16.38c-7.56,-0 -12.54,3.54 -14.94,10.62c-0.48,1.56 -0.9,3.48 -1.26,5.76c-0,0.6 0.3,0.9 0.9,0.9l31.14,-0c0.72,-0 0.96,-0.3 0.72,-0.9c-0.6,-3.48 -0.9,-5.16 -0.9,-5.04c-1.08,-3.6 -2.97,-6.39 -5.67,-8.37c-2.7,-1.98 -6.03,-2.97 -9.99,-2.97Z" style="fill:#fff;fill-rule:nonzero;"/>
    <path d="M1357.7,214.26c-8.04,-0 -15.06,-1.14 -21.06,-3.42c-6,-2.28 -10.65,-5.46 -13.95,-9.54c-3.3,-4.08 -4.95,-8.7 -4.95,-13.86l-0,-1.8c-0,-0.6 0.21,-1.11 0.63,-1.53c0.42,-0.42 0.93,-0.63 1.53,-0.63l19.98,-0c0.6,-0 1.11,0.21 1.53,0.63c0.42,0.42 0.63,0.93 0.63,1.53l-0,0.18c-0,2.64 1.47,4.89 4.41,6.75c2.94,1.86 6.63,2.79 11.07,2.79c4.08,-0 7.38,-0.81 9.9,-2.43c2.52,-1.62 3.78,-3.63 3.78,-6.03c-0,-2.16 -1.08,-3.78 -3.24,-4.86c-2.16,-1.08 -5.7,-2.22 -10.62,-3.42c-5.64,-1.44 -10.08,-2.82 -13.32,-4.14c-7.68,-2.64 -13.8,-5.88 -18.36,-9.72c-4.56,-3.84 -6.84,-9.36 -6.84,-16.56c-0,-8.88 3.45,-15.93 10.35,-21.15c6.9,-5.22 16.05,-7.83 27.45,-7.83c7.68,-0 14.4,1.23 20.16,3.69c5.76,2.46 10.23,5.91 13.41,10.35c3.18,4.44 4.77,9.48 4.77,15.12c-0,0.6 -0.21,1.11 -0.63,1.53c-0.42,0.42 -0.93,0.63 -1.53,0.63l-19.26,-0c-0.6,-0 -1.11,-0.21 -1.53,-0.63c-0.42,-0.42 -0.63,-0.93 -0.63,-1.53c-0,-2.64 -1.35,-4.86 -4.05,-6.66c-2.7,-1.8 -6.27,-2.7 -10.71,-2.7c-3.96,-0 -7.2,0.72 -9.72,2.16c-2.52,1.44 -3.78,3.42 -3.78,5.94c-0,2.4 1.23,4.2 3.69,5.4c2.46,1.2 6.57,2.46 12.33,3.78c1.32,0.36 2.82,0.75 4.5,1.17c1.68,0.42 3.48,0.93 5.4,1.53c8.52,2.52 15.24,5.76 20.16,9.72c4.92,3.96 7.38,9.72 7.38,17.28c-0,8.88 -3.51,15.81 -10.53,20.79c-7.02,4.98 -16.47,7.47 -28.35,7.47Z" style="fill:#fff;fill-rule:nonzero;"/>
    <path d="M1446.8,214.26c-8.04,-0 -15.06,-1.14 -21.06,-3.42c-6,-2.28 -10.65,-5.46 -13.95,-9.54c-3.3,-4.08 -4.95,-8.7 -4.95,-13.86l-0,-1.8c-0,-0.6 0.21,-1.11 0.63,-1.53c0.42,-0.42 0.93,-0.63 1.53,-0.63l19.98,-0c0.6,-0 1.11,0.21 1.53,0.63c0.42,0.42 0.63,0.93 0.63,1.53l-0,0.18c-0,2.64 1.47,4.89 4.41,6.75c2.94,1.86 6.63,2.79 11.07,2.79c4.08,-0 7.38,-0.81 9.9,-2.43c2.52,-1.62 3.78,-3.63 3.78,-6.03c-0,-2.16 -1.08,-3.78 -3.24,-4.86c-2.16,-1.08 -5.7,-2.22 -10.62,-3.42c-5.64,-1.44 -10.08,-2.82 -13.32,-4.14c-7.68,-2.64 -13.8,-5.88 -18.36,-9.72c-4.56,-3.84 -6.84,-9.36 -6.84,-16.56c-0,-8.88 3.45,-15.93 10.35,-21.15c6.9,-5.22 16.05,-7.83 27.45,-7.83c7.68,-0 14.4,1.23 20.16,3.69c5.76,2.46 10.23,5.91 13.41,10.35c3.18,4.44 4.77,9.48 4.77,15.12c-0,0.6 -0.21,1.11 -0.63,1.53c-0.42,0.42 -0.93,0.63 -1.53,0.63l-19.26,-0c-0.6,-0 -1.11,-0.21 -1.53,-0.63c-0.42,-0.42 -0.63,-0.93 -0.63,-1.53c-0,-2.64 -1.35,-4.86 -4.05,-6.66c-2.7,-1.8 -6.27,-2.7 -10.71,-2.7c-3.96,-0 -7.2,0.72 -9.72,2.16c-2.52,1.44 -3.78,3.42 -3.78,5.94c-0,2.4 1.23,4.2 3.69,5.4c2.46,1.2 6.57,2.46 12.33,3.78c1.32,0.36 2.82,0.75 4.5,1.17c1.68,0.42 3.48,0.93 5.4,1.53c8.52,2.52 15.24,5.76 20.16,9.72c4.92,3.96 7.38,9.72 7.38,17.28c-0,8.88 -3.51,15.81 -10.53,20.79c-7.02,4.98 -16.47,7.47 -28.35,7.47Z" style="fill:#fff;fill-rule:nonzero;"/>
    <path d="M1541.12,214.44c-10.08,-0 -18.72,-2.64 -25.92,-7.92c-7.2,-5.28 -12.12,-12.48 -14.76,-21.6c-1.68,-5.64 -2.52,-11.76 -2.52,-18.36c-0,-7.08 0.84,-13.44 2.52,-19.08c2.76,-8.88 7.74,-15.84 14.94,-20.88c7.2,-5.04 15.84,-7.56 25.92,-7.56c9.84,-0 18.24,2.49 25.2,7.47c6.96,4.98 11.88,11.91 14.76,20.79c1.92,6 2.88,12.3 2.88,18.9c-0,6.48 -0.84,12.54 -2.52,18.18c-2.64,9.36 -7.53,16.71 -14.67,22.05c-7.14,5.34 -15.75,8.01 -25.83,8.01Zm-0,-21.78c3.96,-0 7.32,-1.2 10.08,-3.6c2.76,-2.4 4.74,-5.7 5.94,-9.9c0.96,-3.84 1.44,-8.04 1.44,-12.6c-0,-5.04 -0.48,-9.3 -1.44,-12.78c-1.32,-4.08 -3.36,-7.26 -6.12,-9.54c-2.76,-2.28 -6.12,-3.42 -10.08,-3.42c-4.08,-0 -7.47,1.14 -10.17,3.42c-2.7,2.28 -4.65,5.46 -5.85,9.54c-0.96,2.88 -1.44,7.14 -1.44,12.78c-0,5.4 0.42,9.6 1.26,12.6c1.2,4.2 3.21,7.5 6.03,9.9c2.82,2.4 6.27,3.6 10.35,3.6Z" style="fill:#fff;fill-rule:nonzero;"/>
    <path d="M1646.6,119.22c4.32,-0 7.74,0.84 10.26,2.52c0.96,0.48 1.32,1.38 1.08,2.7l-3.78,20.52c-0.12,1.44 -0.96,1.86 -2.52,1.26c-1.8,-0.6 -3.9,-0.9 -6.3,-0.9c-0.96,-0 -2.28,0.12 -3.96,0.36c-4.32,0.36 -7.98,1.95 -10.98,4.77c-3,2.82 -4.5,6.57 -4.5,11.25l-0,49.14c-0,0.6 -0.21,1.11 -0.63,1.53c-0.42,0.42 -0.93,0.63 -1.53,0.63l-21.06,-0c-0.6,-0 -1.11,-0.21 -1.53,-0.63c-0.42,-0.42 -0.63,-0.93 -0.63,-1.53l-0,-88.2c-0,-0.6 0.21,-1.11 0.63,-1.53c0.42,-0.42 0.93,-0.63 1.53,-0.63l21.06,-0c0.6,-0 1.11,0.21 1.53,0.63c0.42,0.42 0.63,0.93 0.63,1.53l-0,6.84c-0,0.36 0.12,0.6 0.36,0.72c0.24,0.12 0.42,0.06 0.54,-0.18c4.92,-7.2 11.52,-10.8 19.8,-10.8Z" style="fill:#fff;fill-rule:nonzero;"/>
</svg>
